<?xml version="1.0" encoding="UTF-8"?>
<svg id="Layer_1" data-name="Layer 1" xmlns="http://www.w3.org/2000/svg" viewBox="0 0 96 86">
  <defs>
    <style>
      .cls-1 {
        fill: #166534;
        stroke-width: 0px;
      }
    </style>
  </defs>
  <g>
    <path class="cls-1"
      d="M0,50.65c2,0,4,0,6,0,.06,0,.11.02.17.08-.18.02-.37.03-.55.06-.83.12-1.42.62-1.53,1.33-.06.39-.1.78-.11,1.17-.02.91,0,1.82,0,2.74,0,.19.02.35.22.44.19.09.32-.01.45-.13,1.3-1.15,2.61-2.29,3.9-3.45.28-.25.52-.57.74-.88.29-.4.13-.91-.33-1.09-.23-.09-.48-.12-.72-.17-.06-.01-.13-.02-.19-.08h9.54s0,.04,0,.06c-.12,0-.24.01-.36.02-1.37.07-1.81.64-1.97,1.7-.05.32-.05.65-.06.98,0,2.03,0,4.06-.02,6.1,0,.9.03,1.79.4,2.63.38.87,1.03,1.37,1.99,1.47.5.05.99.04,1.48-.07.89-.22,1.43-.82,1.74-1.66.26-.72.31-1.47.32-2.22,0-.94-.02-1.89-.02-2.83,0-1.22.01-2.45,0-3.67,0-.38-.06-.77-.15-1.13-.18-.74-.69-1.16-1.45-1.25-.21-.02-.42-.04-.62-.05,0-.02,0-.05,0-.07.08,0,.16-.02.24-.02,3.5,0,7.01,0,10.51,0,.87,0,1.73.12,2.54.4,2.02.71,2.66,2.75,1.76,4.33-.45.8-1.23,1.18-2.07,1.45-.07.02-.14.03-.21.06-.25.12-.3.45-.06.58,1.19.64,1.75,1.78,2.35,2.89.17.32.32.64.51,1.02.17-.38.31-.71.45-1.05,1.31-3.1,2.61-6.21,3.92-9.31.04-.1.15-.17.22-.25.08.08.18.15.23.25,1.84,3.77,3.67,7.54,5.49,11.32.35.72.94.98,1.67,1.04.08,0,.15.02.23.02,0,.02,0,.05,0,.07h-6.49s0-.05,0-.07c.11,0,.21-.02.32-.03.92,0,1.6-.57,1.71-1.48.03-.24-.02-.52-.12-.74-.5-1.1-1.03-2.18-1.55-3.27-.21-.42-.58-.66-1.02-.71-.63-.06-1.28-.09-1.91-.05-.48.03-.87.32-1.08.75-.47.96-.9,1.94-1.34,2.91-.14.31-.26.64-.38.96-.03.07-.06.17-.03.23.21.49.43.98.95,1.22.25.12.54.16.8.24-.36.15-.77.2-1.18.18-1.37-.06-2.3-.84-3.06-1.9-.51-.72-.82-1.53-1.13-2.34-.11-.29-.23-.58-.35-.87-.36-.8-1.04-1.15-1.86-1.29-.25-.04-.51-.07-.76-.09-.34-.02-.48.11-.46.45.06.85.08,1.69-.04,2.54-.11.78-.29,1.55-.62,2.28-.17.36-.41.65-.79.8-.39.15-.78.27-1.18.4-.05.02-.1,0-.22,0,.08-.08.12-.12.17-.15.53-.34.78-.82.78-1.45.02-2.24.03-4.48.07-6.72.01-.8.11-1.61.16-2.41.09-1.33-.98-2.11-2.04-1.84-.64.17-1.12.82-1.14,1.58-.01.56,0,1.12,0,1.68,0,1.97,0,3.94,0,5.9-.01,1.99-1.36,3.45-3.34,3.66-.95.1-1.9.18-2.84,0-2.02-.39-3.19-1.66-3.2-3.75,0-2.29,0-4.58,0-6.86,0-.36-.04-.72-.1-1.07-.2-1.05-1.48-1.56-2.35-.92-.63.46-1.23.97-1.82,1.48-1.32,1.15-2.62,2.33-3.93,3.49-.15.13-.29.27-.2.49.09.22.28.22.48.23.54.03,1.08.05,1.62.11,1.13.12,1.93.75,2.49,1.71.44.75.83,1.53,1.26,2.29.34.61.69,1.21,1.05,1.8.31.51.77.8,1.38.82.02,0,.05,0,.07.01,0,0,0,0,.07.07-.32.05-.6.12-.88.13-1.13.03-2.06-.43-2.84-1.22-.65-.66-1.09-1.45-1.47-2.29-.24-.52-.48-1.05-.74-1.56-.29-.57-.68-1.06-1.29-1.34-1.06-.48-2.26.27-2.26,1.44,0,.89,0,1.78.05,2.66.04,1,.55,1.59,1.49,1.78.15.03.3.02.45.03.07,0,.14.01.21.02,0,.03,0,.07,0,.1-2.06,0-4.12,0-6.18.01,0-.05,0-.1,0-.14.18,0,.35.02.53,0,.76-.04,1.47-.62,1.58-1.34.06-.38.1-.78.1-1.17,0-2.45,0-4.91,0-7.36,0-.36-.02-.72-.05-1.08-.05-.6-.29-1.1-.83-1.4C.93,50.81.47,50.74,0,50.75v-.1ZM27.59,53.92c0,.81,0,1.61,0,2.42,0,.37.11.5.48.49.53,0,1.06,0,1.58-.04.36-.03.75-.07,1.07-.22,1.71-.82,2.2-2.62,1.32-4.12-.45-.76-1.11-1.29-2.01-1.41-.64-.08-1.29-.06-1.94-.07-.35,0-.51.16-.51.52,0,.81,0,1.61,0,2.42ZM36.83,56.8c.08.02.11.03.14.03.65,0,1.31.02,1.96,0,.27,0,.55-.09.82-.16.16-.04.26-.16.19-.35-.35-.82-.7-1.64-1.05-2.46-.08-.19-.22-.34-.46-.32-.23.02-.35.17-.43.37-.18.44-.36.89-.54,1.33-.21.51-.41,1.03-.63,1.57Z" />
    <path class="cls-1"
      d="M96,63.52c-.37,0-.74-.01-1.1-.01-1.74,0-3.49,0-5.23,0h-.27s0-.06,0-.09c.09-.01.18-.03.26-.03.4.01.76-.09,1.09-.3.65-.42.89-1.24.55-1.93-.51-1.04-1.02-2.08-1.53-3.12-.22-.45-.61-.7-1.08-.74-.63-.06-1.26-.09-1.89-.05-.53.03-.92.36-1.16.83-.37.72-.71,1.45-1.05,2.18-.23.5-.43,1.01-.63,1.53-.04.1,0,.24.01.36.01.08.07.14.1.21.34.67.86,1.06,1.64,1.09-.08.03-.16.06-.25.08-1.26.3-2.35-.03-3.3-.9-.7-.64-1.19-1.42-1.55-2.28-.19-.46-.39-.91-.56-1.38-.35-.99-1.06-1.5-2.08-1.64-.25-.03-.51-.07-.76-.09-.33-.02-.47.14-.44.47.14,1.53.01,3.03-.56,4.48-.22.57-.6.95-1.18,1.14-.3.1-.61.18-.92.27-.05.01-.11,0-.17,0,0-.02-.01-.04-.02-.06.07-.05.14-.09.2-.14.45-.31.7-.72.71-1.28.02-1.81.03-3.61.06-5.42.02-.99.05-1.98.09-2.97,0-.25.08-.49.1-.73.08-.93-.62-1.75-1.54-1.8-.92-.05-1.65.64-1.66,1.6-.01,2.34,0,4.69,0,7.03,0,.44-.03.88-.13,1.31-.34,1.46-1.32,2.3-2.73,2.61-1.18.26-2.4.31-3.6.06-1.15-.24-2.13-.78-2.68-1.9-.31-.62-.39-1.29-.39-1.98,0-2.3,0-4.61,0-6.91,0-.19-.05-.38-.07-.57-.11-1.05-1.51-1.66-2.44-.95-.69.53-1.38,1.07-2.04,1.63-1.23,1.05-2.44,2.11-3.66,3.17-.05.04-.1.08-.14.13-.12.11-.2.23-.13.4.07.17.21.23.38.23.3,0,.61-.03.91.01.53.07,1.06.13,1.58.27.71.19,1.24.67,1.62,1.28.51.83.97,1.69,1.46,2.53.3.52.61,1.03.92,1.55.34.57.81.94,1.5.97.04,0,.08.01.12.08-.18.04-.36.09-.54.11-1.32.14-2.39-.35-3.29-1.28-.72-.74-1.15-1.66-1.6-2.57-.25-.5-.48-1.01-.78-1.48-.37-.58-.88-.99-1.6-1.07-.88-.1-1.73.57-1.74,1.45-.01.99.01,1.98.09,2.97.07.88.81,1.5,1.71,1.52.14,0,.29,0,.43,0v.09h-6.24v-.06c.1,0,.2-.02.3-.02.4,0,.77-.1,1.11-.32.52-.33.72-.83.77-1.42.03-.3.04-.61.04-.91,0-2.46,0-4.91,0-7.37,0-.36-.05-.72-.12-1.07-.13-.66-.57-1.06-1.2-1.23-.29-.08-.59-.11-.88-.2h6.23s0,.05,0,.07c-.11,0-.22.02-.33.02-.67.04-1.28.23-1.61.86-.16.3-.23.67-.26,1.01-.05.75-.04,1.5-.05,2.25,0,.36,0,.72,0,1.08,0,.17.03.32.2.4.17.08.31.02.44-.09,1.33-1.14,2.67-2.27,3.99-3.42.29-.25.52-.56.75-.87.27-.37.12-.87-.32-1.05-.23-.09-.49-.12-.74-.17-.07-.01-.14-.01-.22-.02,0-.02,0-.05,0-.07h9.68s0,.04.01.05c-.05.01-.1.03-.15.04-.22.01-.44-.01-.65.03-.98.17-1.42.61-1.57,1.6-.06.37-.06.75-.06,1.12,0,1.76.01,3.52,0,5.28,0,.77-.04,1.53.11,2.29.1.48.26.94.54,1.34.37.53.87.85,1.52.94.5.07,1,.09,1.5,0,1-.17,1.63-.75,1.98-1.68.3-.82.32-1.67.32-2.53,0-1.95,0-3.9-.01-5.86,0-.39-.06-.78-.12-1.16-.17-.98-.94-1.36-1.75-1.39-.13,0-.27,0-.4,0,0-.03,0-.07,0-.1.07,0,.14-.02.21-.02,3.6,0,7.2-.01,10.8,0,1.01,0,2.02.13,2.94.6.83.42,1.44,1.06,1.63,2.01.27,1.34-.29,2.49-1.55,3.11-.32.16-.67.24-1,.39-.11.05-.23.17-.28.28-.06.16.05.28.2.36.73.39,1.26.97,1.67,1.68.34.6.67,1.21,1.01,1.82.04.07.08.15.15.27.07-.14.11-.23.15-.32,1.41-3.26,2.82-6.52,4.24-9.78.02-.05.04-.11.07-.15.05-.06.12-.14.18-.15.06,0,.15.07.19.14.19.37.37.74.56,1.11,1.7,3.41,3.41,6.81,5.12,10.22.32.64.93.81,1.57.89.1.01.21,0,.31,0v.14ZM76.69,54.1c0,.81,0,1.62,0,2.42,0,.29.12.43.4.42.69-.02,1.38,0,2.06-.09,1.63-.18,2.71-1.7,2.41-3.31-.22-1.13-1.23-2.14-2.37-2.28-.66-.08-1.32-.07-1.99-.08-.36,0-.51.17-.51.54,0,.79,0,1.58,0,2.38ZM86.03,56.92c.81,0,1.56.01,2.32,0,.22,0,.44-.08.65-.15.15-.05.25-.16.17-.33-.35-.8-.7-1.61-1.06-2.41-.09-.2-.23-.34-.48-.32-.24.02-.35.17-.43.36-.3.74-.61,1.47-.92,2.21-.08.2-.17.41-.27.64Z" />
    <path class="cls-1"
      d="M51.12,13.21c.27.22.28.29.1.61-.7,1.29-1.41,2.58-2.1,3.88-.14.25-.31.35-.59.35-.9-.01-1.79-.01-2.69,0-.26,0-.42-.09-.55-.33-.7-1.3-1.41-2.6-2.12-3.89-.17-.31-.15-.38.12-.6h7.82Z" />
    <path class="cls-1"
      d="M59.09,34.8c-1.08-.1-2.31-.21-3.53-.32-.22-.02-.45-.07-.67-.05-.36.02-.59-.14-.83-.39-1.24-1.34-2.49-2.66-3.74-3.99-.21-.22-.21-.34,0-.58,1.15-1.33,2.3-2.66,3.45-3.99.12-.14.24-.21.43-.22,1.55-.13,3.1-.27,4.66-.41.18-.02.35-.03.53-.04.22-.02.35.09.38.31.21,1.54.43,3.08.6,4.63.04.39-.07.81-.13,1.21-.15,1.15-.3,2.3-.46,3.44-.06.41-.09.43-.68.41Z" />
    <path class="cls-1"
      d="M40.46,29.83c0,1.39,0,2.78,0,4.17,0,.32-.03.34-.35.37-1.38.12-2.75.25-4.13.37-.31.03-.62.05-.93.07-.26.01-.35-.06-.38-.32-.16-1.19-.32-2.39-.48-3.58-.03-.23-.05-.46-.1-.69-.11-.52.04-1.02.1-1.52.15-1.19.31-2.37.47-3.56.04-.28.16-.36.44-.34,1.2.11,2.4.21,3.6.32.51.04,1.02.1,1.53.14.21.02.23.15.23.32,0,1.34,0,2.67,0,4.01,0,.08,0,.16,0,.24Z" />
    <path class="cls-1"
      d="M52.38,23.84c-.21.01-.31-.13-.37-.3-.34-.92-.69-1.84-1.03-2.76-.2-.55-.4-1.09-.62-1.63-.07-.19-.06-.35.04-.52.82-1.49,1.63-2.98,2.45-4.48.14-.25.33-.29.55-.11,1.27,1.07,2.55,2.14,3.81,3.21.08.07.15.19.18.3.58,1.74,1.16,3.48,1.73,5.22.11.33,0,.48-.35.51-1.4.12-2.8.25-4.2.37-.73.06-1.46.12-2.2.18Z" />
    <path class="cls-1"
      d="M42.08,23.85c-1.4-.13-2.73-.25-4.06-.36-.8-.07-1.59-.14-2.39-.2-.34-.03-.46-.18-.35-.51.58-1.76,1.16-3.52,1.75-5.27.04-.11.13-.22.22-.3,1.23-1.04,2.47-2.08,3.71-3.12.29-.24.45-.22.63.1.81,1.49,1.62,2.97,2.42,4.46.07.12.09.32.04.45-.54,1.49-1.11,2.97-1.66,4.46-.07.19-.18.3-.31.29Z" />
    <path class="cls-1"
      d="M44.12,40.75c-.04.09-.08.19-.13.28-.79,1.46-1.59,2.92-2.38,4.38-.2.37-.35.4-.67.14-1.23-1.04-2.47-2.08-3.7-3.12-.1-.08-.18-.21-.22-.33-.58-1.72-1.15-3.45-1.73-5.18-.13-.39-.04-.52.38-.56,1.54-.14,3.09-.28,4.63-.42.56-.05,1.11-.1,1.67-.15.21-.02.33.07.4.26.56,1.5,1.12,3,1.68,4.51.02.06.04.12.06.19Z" />
    <path class="cls-1"
      d="M52.41,35.8c.95.08,1.91.16,2.86.25,1,.09,2,.18,3.01.27.18.02.35.03.52.05.31.02.42.18.32.48-.34,1.04-.68,2.08-1.03,3.11-.24.71-.47,1.42-.71,2.13-.04.11-.11.24-.2.31-1.24,1.05-2.49,2.1-3.74,3.15-.29.24-.45.21-.62-.11-.81-1.48-1.61-2.96-2.42-4.43-.1-.18-.11-.34-.03-.52.55-1.46,1.09-2.91,1.64-4.37.07-.19.17-.35.41-.32Z" />
    <path class="cls-1"
      d="M47.2,40.03c-.45,0-.9,0-1.34,0-.21,0-.33-.09-.41-.29-.59-1.6-1.2-3.2-1.79-4.8-.04-.11-.06-.23-.06-.35,0-1.06,0-2.11,0-3.17,0-.34.1-.45.44-.45.88,0,1.76,0,2.64,0,.14,0,.31.08.41.18,1.14,1.2,2.27,2.41,3.41,3.61.16.17.21.33.12.56-.55,1.45-1.1,2.91-1.64,4.37-.09.24-.23.34-.48.33-.43-.01-.86,0-1.3,0Z" />
    <path class="cls-1"
      d="M43.59,26.6s0-.05,0-.07c-.11-1.14.13-2.2.57-3.25.46-1.09.84-2.21,1.25-3.31.13-.34.16-.36.53-.36.86,0,1.73,0,2.59,0,.22,0,.35.08.43.29.52,1.41,1.05,2.81,1.58,4.21.06.17.03.3-.08.44-1.14,1.31-2.27,2.62-3.42,3.92-.09.1-.26.18-.39.18-.88.02-1.76.01-2.64,0-.31,0-.42-.11-.42-.42,0-.54,0-1.09,0-1.63Z" />
    <path class="cls-1"
      d="M47.2,46.41c-1.22,0-2.45,0-3.67,0-.11,0-.25-.02-.34-.08-.17-.11-.14-.28-.05-.45.64-1.16,1.27-2.33,1.9-3.49.11-.2.2-.41.33-.58.08-.1.23-.2.34-.2.99-.02,1.98,0,2.97,0,.18,0,.29.09.37.25.73,1.35,1.47,2.69,2.2,4.04.17.31.03.52-.34.52-.98,0-1.95,0-2.93,0-.26,0-.53,0-.79,0Z" />
    <path class="cls-1"
      d="M41.25,70.31c.64.28.9.64.89,1.24,0,.46-.22.8-.62,1-.21.1-.45.19-.68.2-.44.03-.88,0-1.34,0v-4.64c.48.05.94.07,1.39.15.42.08.71.37.79.8.08.45.02.86-.38,1.16-.02.01-.03.04-.06.07ZM40.03,70.63c0,.55,0,1.04,0,1.54,0,.04.09.13.13.13.28,0,.56,0,.83-.07.41-.09.62-.39.62-.77,0-.36-.22-.64-.61-.73-.31-.07-.62-.07-.97-.1ZM40.03,69.43c0,.12,0,.24,0,.36,0,.5-.05.45.45.41.47-.04.7-.26.72-.7.03-.49-.15-.74-.62-.83-.11-.02-.22-.02-.33-.03-.16-.02-.23.04-.22.21.01.19,0,.38,0,.57Z" />
    <path class="cls-1"
      d="M44.21,72.78c.74-1.61,1.45-3.17,2.19-4.79.74,1.61,1.46,3.18,2.19,4.79-.17,0-.31.02-.44,0-.08-.01-.17-.07-.21-.14-.14-.28-.25-.57-.4-.84-.04-.08-.16-.16-.24-.16-.61-.01-1.22-.01-1.82,0-.08,0-.19.08-.23.15-.13.24-.24.49-.34.74-.08.2-.18.3-.4.26-.08-.01-.17,0-.3,0ZM47.24,71.1c-.28-.64-.55-1.25-.84-1.92-.3.67-.56,1.28-.84,1.92h1.69Z" />
    <path class="cls-1"
      d="M52.83,72.28v.48h-1.93c0-.09-.01-.16-.01-.24,0-1.36,0-2.72,0-4.07,0-.25.25-.39.46-.25.06.04.07.17.07.25,0,1.12,0,2.24,0,3.35,0,.07,0,.14,0,.22-.03.21.05.28.27.27.37-.02.75,0,1.14,0Z" />
    <path class="cls-1" d="M55.61,68.19v4.56h-.54v-.28c0-1.31,0-2.62,0-3.93q0-.39.4-.37s.08.01.14.02Z" />
  </g>
  <g>
    <path class="cls-1"
      d="M0,50.65c2,0,4,0,6,0,.06,0,.11.02.17.08-.18.02-.37.03-.55.06-.83.12-1.42.62-1.53,1.33-.06.39-.1.78-.11,1.17-.02.91,0,1.82,0,2.74,0,.19.02.35.22.44.19.09.32-.01.45-.13,1.3-1.15,2.61-2.29,3.9-3.45.28-.25.52-.57.74-.88.29-.4.13-.91-.33-1.09-.23-.09-.48-.12-.72-.17-.06-.01-.13-.02-.19-.08h9.54s0,.04,0,.06c-.12,0-.24.01-.36.02-1.37.07-1.81.64-1.97,1.7-.05.32-.05.65-.06.98,0,2.03,0,4.06-.02,6.1,0,.9.03,1.79.4,2.63.38.87,1.03,1.37,1.99,1.47.5.05.99.04,1.48-.07.89-.22,1.43-.82,1.74-1.66.26-.72.31-1.47.32-2.22,0-.94-.02-1.89-.02-2.83,0-1.22.01-2.45,0-3.67,0-.38-.06-.77-.15-1.13-.18-.74-.69-1.16-1.45-1.25-.21-.02-.42-.04-.62-.05,0-.02,0-.05,0-.07.08,0,.16-.02.24-.02,3.5,0,7.01,0,10.51,0,.87,0,1.73.12,2.54.4,2.02.71,2.66,2.75,1.76,4.33-.45.8-1.23,1.18-2.07,1.45-.07.02-.14.03-.21.06-.25.12-.3.45-.06.58,1.19.64,1.75,1.78,2.35,2.89.17.32.32.64.51,1.02.17-.38.31-.71.45-1.05,1.31-3.1,2.61-6.21,3.92-9.31.04-.1.15-.17.22-.25.08.08.18.15.23.25,1.84,3.77,3.67,7.54,5.49,11.32.35.72.94.98,1.67,1.04.08,0,.15.02.23.02,0,.02,0,.05,0,.07h-6.49s0-.05,0-.07c.11,0,.21-.02.32-.03.92,0,1.6-.57,1.71-1.48.03-.24-.02-.52-.12-.74-.5-1.1-1.03-2.18-1.55-3.27-.21-.42-.58-.66-1.02-.71-.63-.06-1.28-.09-1.91-.05-.48.03-.87.32-1.08.75-.47.96-.9,1.94-1.34,2.91-.14.31-.26.64-.38.96-.03.07-.06.17-.03.23.21.49.43.98.95,1.22.25.12.54.16.8.24-.36.15-.77.2-1.18.18-1.37-.06-2.3-.84-3.06-1.9-.51-.72-.82-1.53-1.13-2.34-.11-.29-.23-.58-.35-.87-.36-.8-1.04-1.15-1.86-1.29-.25-.04-.51-.07-.76-.09-.34-.02-.48.11-.46.45.06.85.08,1.69-.04,2.54-.11.78-.29,1.55-.62,2.28-.17.36-.41.65-.79.8-.39.15-.78.27-1.18.4-.05.02-.1,0-.22,0,.08-.08.12-.12.17-.15.53-.34.78-.82.78-1.45.02-2.24.03-4.48.07-6.72.01-.8.11-1.61.16-2.41.09-1.33-.98-2.11-2.04-1.84-.64.17-1.12.82-1.14,1.58-.01.56,0,1.12,0,1.68,0,1.97,0,3.94,0,5.9-.01,1.99-1.36,3.45-3.34,3.66-.95.1-1.9.18-2.84,0-2.02-.39-3.19-1.66-3.2-3.75,0-2.29,0-4.58,0-6.86,0-.36-.04-.72-.1-1.07-.2-1.05-1.48-1.56-2.35-.92-.63.46-1.23.97-1.82,1.48-1.32,1.15-2.62,2.33-3.93,3.49-.15.13-.29.27-.2.49.09.22.28.22.48.23.54.03,1.08.05,1.62.11,1.13.12,1.93.75,2.49,1.71.44.75.83,1.53,1.26,2.29.34.61.69,1.21,1.05,1.8.31.51.77.8,1.38.82.02,0,.05,0,.07.01,0,0,0,0,.07.07-.32.05-.6.12-.88.13-1.13.03-2.06-.43-2.84-1.22-.65-.66-1.09-1.45-1.47-2.29-.24-.52-.48-1.05-.74-1.56-.29-.57-.68-1.06-1.29-1.34-1.06-.48-2.26.27-2.26,1.44,0,.89,0,1.78.05,2.66.04,1,.55,1.59,1.49,1.78.15.03.3.02.45.03.07,0,.14.01.21.02,0,.03,0,.07,0,.1-2.06,0-4.12,0-6.18.01,0-.05,0-.1,0-.14.18,0,.35.02.53,0,.76-.04,1.47-.62,1.58-1.34.06-.38.1-.78.1-1.17,0-2.45,0-4.91,0-7.36,0-.36-.02-.72-.05-1.08-.05-.6-.29-1.1-.83-1.4C.93,50.81.47,50.74,0,50.75v-.1ZM27.59,53.92c0,.81,0,1.61,0,2.42,0,.37.11.5.48.49.53,0,1.06,0,1.58-.04.36-.03.75-.07,1.07-.22,1.71-.82,2.2-2.62,1.32-4.12-.45-.76-1.11-1.29-2.01-1.41-.64-.08-1.29-.06-1.94-.07-.35,0-.51.16-.51.52,0,.81,0,1.61,0,2.42ZM36.83,56.8c.08.02.11.03.14.03.65,0,1.31.02,1.96,0,.27,0,.55-.09.82-.16.16-.04.26-.16.19-.35-.35-.82-.7-1.64-1.05-2.46-.08-.19-.22-.34-.46-.32-.23.02-.35.17-.43.37-.18.44-.36.89-.54,1.33-.21.51-.41,1.03-.63,1.57Z" />
    <path class="cls-1"
      d="M96,63.52c-.37,0-.74-.01-1.1-.01-1.74,0-3.49,0-5.23,0h-.27s0-.06,0-.09c.09-.01.18-.03.26-.03.4.01.76-.09,1.09-.3.65-.42.89-1.24.55-1.93-.51-1.04-1.02-2.08-1.53-3.12-.22-.45-.61-.7-1.08-.74-.63-.06-1.26-.09-1.89-.05-.53.03-.92.36-1.16.83-.37.72-.71,1.45-1.05,2.18-.23.5-.43,1.01-.63,1.53-.04.1,0,.24.01.36.01.08.07.14.1.21.34.67.86,1.06,1.64,1.09-.08.03-.16.06-.25.08-1.26.3-2.35-.03-3.3-.9-.7-.64-1.19-1.42-1.55-2.28-.19-.46-.39-.91-.56-1.38-.35-.99-1.06-1.5-2.08-1.64-.25-.03-.51-.07-.76-.09-.33-.02-.47.14-.44.47.14,1.53.01,3.03-.56,4.48-.22.57-.6.95-1.18,1.14-.3.1-.61.18-.92.27-.05.01-.11,0-.17,0,0-.02-.01-.04-.02-.06.07-.05.14-.09.2-.14.45-.31.7-.72.71-1.28.02-1.81.03-3.61.06-5.42.02-.99.05-1.98.09-2.97,0-.25.08-.49.1-.73.08-.93-.62-1.75-1.54-1.8-.92-.05-1.65.64-1.66,1.6-.01,2.34,0,4.69,0,7.03,0,.44-.03.88-.13,1.31-.34,1.46-1.32,2.3-2.73,2.61-1.18.26-2.4.31-3.6.06-1.15-.24-2.13-.78-2.68-1.9-.31-.62-.39-1.29-.39-1.98,0-2.3,0-4.61,0-6.91,0-.19-.05-.38-.07-.57-.11-1.05-1.51-1.66-2.44-.95-.69.53-1.38,1.07-2.04,1.63-1.23,1.05-2.44,2.11-3.66,3.17-.05.04-.1.08-.14.13-.12.11-.2.23-.13.4.07.17.21.23.38.23.3,0,.61-.03.91.01.53.07,1.06.13,1.58.27.71.19,1.24.67,1.62,1.28.51.83.97,1.69,1.46,2.53.3.52.61,1.03.92,1.55.34.57.81.94,1.5.97.04,0,.08.01.12.08-.18.04-.36.09-.54.11-1.32.14-2.39-.35-3.29-1.28-.72-.74-1.15-1.66-1.6-2.57-.25-.5-.48-1.01-.78-1.48-.37-.58-.88-.99-1.6-1.07-.88-.1-1.73.57-1.74,1.45-.01.99.01,1.98.09,2.97.07.88.81,1.5,1.71,1.52.14,0,.29,0,.43,0v.09h-6.24v-.06c.1,0,.2-.02.3-.02.4,0,.77-.1,1.11-.32.52-.33.72-.83.77-1.42.03-.3.04-.61.04-.91,0-2.46,0-4.91,0-7.37,0-.36-.05-.72-.12-1.07-.13-.66-.57-1.06-1.2-1.23-.29-.08-.59-.11-.88-.2h6.23s0,.05,0,.07c-.11,0-.22.02-.33.02-.67.04-1.28.23-1.61.86-.16.3-.23.67-.26,1.01-.05.75-.04,1.5-.05,2.25,0,.36,0,.72,0,1.08,0,.17.03.32.2.4.17.08.31.02.44-.09,1.33-1.14,2.67-2.27,3.99-3.42.29-.25.52-.56.75-.87.27-.37.12-.87-.32-1.05-.23-.09-.49-.12-.74-.17-.07-.01-.14-.01-.22-.02,0-.02,0-.05,0-.07h9.68s0,.04.01.05c-.05.01-.1.03-.15.04-.22.01-.44-.01-.65.03-.98.17-1.42.61-1.57,1.6-.06.37-.06.75-.06,1.12,0,1.76.01,3.52,0,5.28,0,.77-.04,1.53.11,2.29.1.48.26.94.54,1.34.37.53.87.85,1.52.94.5.07,1,.09,1.5,0,1-.17,1.63-.75,1.98-1.68.3-.82.32-1.67.32-2.53,0-1.95,0-3.9-.01-5.86,0-.39-.06-.78-.12-1.16-.17-.98-.94-1.36-1.75-1.39-.13,0-.27,0-.4,0,0-.03,0-.07,0-.1.07,0,.14-.02.21-.02,3.6,0,7.2-.01,10.8,0,1.01,0,2.02.13,2.94.6.83.42,1.44,1.06,1.63,2.01.27,1.34-.29,2.49-1.55,3.11-.32.16-.67.24-1,.39-.11.05-.23.17-.28.28-.06.16.05.28.2.36.73.39,1.26.97,1.67,1.68.34.6.67,1.21,1.01,1.82.04.07.08.15.15.27.07-.14.11-.23.15-.32,1.41-3.26,2.82-6.52,4.24-9.78.02-.05.04-.11.07-.15.05-.06.12-.14.18-.15.06,0,.15.07.19.14.19.37.37.74.56,1.11,1.7,3.41,3.41,6.81,5.12,10.22.32.64.93.81,1.57.89.1.01.21,0,.31,0v.14ZM76.69,54.1c0,.81,0,1.62,0,2.42,0,.29.12.43.4.42.69-.02,1.38,0,2.06-.09,1.63-.18,2.71-1.7,2.41-3.31-.22-1.13-1.23-2.14-2.37-2.28-.66-.08-1.32-.07-1.99-.08-.36,0-.51.17-.51.54,0,.79,0,1.58,0,2.38ZM86.03,56.92c.81,0,1.56.01,2.32,0,.22,0,.44-.08.65-.15.15-.05.25-.16.17-.33-.35-.8-.7-1.61-1.06-2.41-.09-.2-.23-.34-.48-.32-.24.02-.35.17-.43.36-.3.74-.61,1.47-.92,2.21-.08.2-.17.41-.27.64Z" />
    <path class="cls-1"
      d="M51.12,13.21c.27.22.28.29.1.61-.7,1.29-1.41,2.58-2.1,3.88-.14.25-.31.35-.59.35-.9-.01-1.79-.01-2.69,0-.26,0-.42-.09-.55-.33-.7-1.3-1.41-2.6-2.12-3.89-.17-.31-.15-.38.12-.6h7.82Z" />
    <path class="cls-1"
      d="M59.09,34.8c-1.08-.1-2.31-.21-3.53-.32-.22-.02-.45-.07-.67-.05-.36.02-.59-.14-.83-.39-1.24-1.34-2.49-2.66-3.74-3.99-.21-.22-.21-.34,0-.58,1.15-1.33,2.3-2.66,3.45-3.99.12-.14.24-.21.43-.22,1.55-.13,3.1-.27,4.66-.41.18-.02.35-.03.53-.04.22-.02.35.09.38.31.21,1.54.43,3.08.6,4.63.04.39-.07.81-.13,1.21-.15,1.15-.3,2.3-.46,3.44-.06.41-.09.43-.68.41Z" />
    <path class="cls-1"
      d="M40.46,29.83c0,1.39,0,2.78,0,4.17,0,.32-.03.34-.35.37-1.38.12-2.75.25-4.13.37-.31.03-.62.05-.93.07-.26.01-.35-.06-.38-.32-.16-1.19-.32-2.39-.48-3.58-.03-.23-.05-.46-.1-.69-.11-.52.04-1.02.1-1.52.15-1.19.31-2.37.47-3.56.04-.28.16-.36.44-.34,1.2.11,2.4.21,3.6.32.51.04,1.02.1,1.53.14.21.02.23.15.23.32,0,1.34,0,2.67,0,4.01,0,.08,0,.16,0,.24Z" />
    <path class="cls-1"
      d="M52.38,23.84c-.21.01-.31-.13-.37-.3-.34-.92-.69-1.84-1.03-2.76-.2-.55-.4-1.09-.62-1.63-.07-.19-.06-.35.04-.52.82-1.49,1.63-2.98,2.45-4.48.14-.25.33-.29.55-.11,1.27,1.07,2.55,2.14,3.81,3.21.08.07.15.19.18.3.58,1.74,1.16,3.48,1.73,5.22.11.33,0,.48-.35.51-1.4.12-2.8.25-4.2.37-.73.06-1.46.12-2.2.18Z" />
    <path class="cls-1"
      d="M42.08,23.85c-1.4-.13-2.73-.25-4.06-.36-.8-.07-1.59-.14-2.39-.2-.34-.03-.46-.18-.35-.51.58-1.76,1.16-3.52,1.75-5.27.04-.11.13-.22.22-.3,1.23-1.04,2.47-2.08,3.71-3.12.29-.24.45-.22.63.1.81,1.49,1.62,2.97,2.42,4.46.07.12.09.32.04.45-.54,1.49-1.11,2.97-1.66,4.46-.07.19-.18.3-.31.29Z" />
    <path class="cls-1"
      d="M44.12,40.75c-.04.09-.08.19-.13.28-.79,1.46-1.59,2.92-2.38,4.38-.2.37-.35.4-.67.14-1.23-1.04-2.47-2.08-3.7-3.12-.1-.08-.18-.21-.22-.33-.58-1.72-1.15-3.45-1.73-5.18-.13-.39-.04-.52.38-.56,1.54-.14,3.09-.28,4.63-.42.56-.05,1.11-.1,1.67-.15.21-.02.33.07.4.26.56,1.5,1.12,3,1.68,4.51.02.06.04.12.06.19Z" />
    <path class="cls-1"
      d="M52.41,35.8c.95.08,1.91.16,2.86.25,1,.09,2,.18,3.01.27.18.02.35.03.52.05.31.02.42.18.32.48-.34,1.04-.68,2.08-1.03,3.11-.24.71-.47,1.42-.71,2.13-.04.11-.11.24-.2.31-1.24,1.05-2.49,2.1-3.74,3.15-.29.24-.45.21-.62-.11-.81-1.48-1.61-2.96-2.42-4.43-.1-.18-.11-.34-.03-.52.55-1.46,1.09-2.91,1.64-4.37.07-.19.17-.35.41-.32Z" />
    <path class="cls-1"
      d="M47.2,40.03c-.45,0-.9,0-1.34,0-.21,0-.33-.09-.41-.29-.59-1.6-1.2-3.2-1.79-4.8-.04-.11-.06-.23-.06-.35,0-1.06,0-2.11,0-3.17,0-.34.1-.45.44-.45.88,0,1.76,0,2.64,0,.14,0,.31.08.41.18,1.14,1.2,2.27,2.41,3.41,3.61.16.17.21.33.12.56-.55,1.45-1.1,2.91-1.64,4.37-.09.24-.23.34-.48.33-.43-.01-.86,0-1.3,0Z" />
    <path class="cls-1"
      d="M43.59,26.6s0-.05,0-.07c-.11-1.14.13-2.2.57-3.25.46-1.09.84-2.21,1.25-3.31.13-.34.16-.36.53-.36.86,0,1.73,0,2.59,0,.22,0,.35.08.43.29.52,1.41,1.05,2.81,1.58,4.21.06.17.03.3-.08.44-1.14,1.31-2.27,2.62-3.42,3.92-.09.1-.26.18-.39.18-.88.02-1.76.01-2.64,0-.31,0-.42-.11-.42-.42,0-.54,0-1.09,0-1.63Z" />
    <path class="cls-1"
      d="M47.2,46.41c-1.22,0-2.45,0-3.67,0-.11,0-.25-.02-.34-.08-.17-.11-.14-.28-.05-.45.64-1.16,1.27-2.33,1.9-3.49.11-.2.2-.41.33-.58.08-.1.23-.2.34-.2.99-.02,1.98,0,2.97,0,.18,0,.29.09.37.25.73,1.35,1.47,2.69,2.2,4.04.17.31.03.52-.34.52-.98,0-1.95,0-2.93,0-.26,0-.53,0-.79,0Z" />
    <path class="cls-1"
      d="M41.25,70.31c.64.28.9.64.89,1.24,0,.46-.22.8-.62,1-.21.1-.45.19-.68.2-.44.03-.88,0-1.34,0v-4.64c.48.05.94.07,1.39.15.42.08.71.37.79.8.08.45.02.86-.38,1.16-.02.01-.03.04-.06.07ZM40.03,70.63c0,.55,0,1.04,0,1.54,0,.04.09.13.13.13.28,0,.56,0,.83-.07.41-.09.62-.39.62-.77,0-.36-.22-.64-.61-.73-.31-.07-.62-.07-.97-.1ZM40.03,69.43c0,.12,0,.24,0,.36,0,.5-.05.45.45.41.47-.04.7-.26.72-.7.03-.49-.15-.74-.62-.83-.11-.02-.22-.02-.33-.03-.16-.02-.23.04-.22.21.01.19,0,.38,0,.57Z" />
    <path class="cls-1"
      d="M44.21,72.78c.74-1.61,1.45-3.17,2.19-4.79.74,1.61,1.46,3.18,2.19,4.79-.17,0-.31.02-.44,0-.08-.01-.17-.07-.21-.14-.14-.28-.25-.57-.4-.84-.04-.08-.16-.16-.24-.16-.61-.01-1.22-.01-1.82,0-.08,0-.19.08-.23.15-.13.24-.24.49-.34.74-.08.2-.18.3-.4.26-.08-.01-.17,0-.3,0ZM47.24,71.1c-.28-.64-.55-1.25-.84-1.92-.3.67-.56,1.28-.84,1.92h1.69Z" />
    <path class="cls-1"
      d="M52.83,72.28v.48h-1.93c0-.09-.01-.16-.01-.24,0-1.36,0-2.72,0-4.07,0-.25.25-.39.46-.25.06.04.07.17.07.25,0,1.12,0,2.24,0,3.35,0,.07,0,.14,0,.22-.03.21.05.28.27.27.37-.02.75,0,1.14,0Z" />
    <path class="cls-1" d="M55.61,68.19v4.56h-.54v-.28c0-1.31,0-2.62,0-3.93q0-.39.4-.37s.08.01.14.02Z" />
  </g>
</svg>